<?xml version="1.0" encoding="UTF-8"?>
<!DOCTYPE svg PUBLIC "-//W3C//DTD SVG 1.1//EN" "http://www.w3.org/Graphics/SVG/1.1/DTD/svg11.dtd">
<!-- Creator: CorelDRAW 2021 (64-Bit) -->
<svg xmlns="http://www.w3.org/2000/svg" xml:space="preserve" width="43.3492mm" height="43.3492mm" version="1.1" style="shape-rendering:geometricPrecision; text-rendering:geometricPrecision; image-rendering:optimizeQuality; fill-rule:evenodd; clip-rule:evenodd"
viewBox="0 0 4334.92 4334.92"
 xmlns:xlink="http://www.w3.org/1999/xlink"
 xmlns:xodm="http://www.corel.com/coreldraw/odm/2003">
 <defs>
  <style type="text/css">
   <![CDATA[
    .fil0 {fill:none}
    .fil3 {fill:white;fill-rule:nonzero}
    .fil2 {fill:url(#id0);fill-rule:nonzero}
    .fil1 {fill:url(#id1);fill-rule:nonzero}
   ]]>
  </style>
  <linearGradient id="id0" gradientUnits="objectBoundingBox" x1="50%" y1="99.9999%" x2="50%" y2="7.38188e-05%">
   <stop offset="0" style="stop-opacity:1; stop-color:#0382F3"/>
   <stop offset="1" style="stop-opacity:1; stop-color:#33A0FF"/>
  </linearGradient>
  <linearGradient id="id1" gradientUnits="userSpaceOnUse" x1="1918.55" y1="3536.61" x2="1918.55" y2="175.96">
   <stop offset="0" style="stop-opacity:1; stop-color:#FBB130"/>
   <stop offset="1" style="stop-opacity:1; stop-color:#FFC259"/>
  </linearGradient>
 </defs>
 <g id="Layer_x0020_1">
  <metadata id="CorelCorpID_0Corel-Layer"/>
  <rect class="fil0" y="0.01" width="4334.9" height="4334.9"/>
  <path class="fil1" d="M1785.76 673.84c0,-274.49 -223.4,-497.88 -497.88,-497.88 -274.48,0 -497.88,223.39 -497.88,497.88 0,274.48 223.4,497.87 497.88,497.87 274.48,0 497.88,-223.39 497.88,-497.87zm477.94 1436.74c22.87,-35.74 26.23,-80.47 9,-118.89l-270.59 -597.79c-57.83,-134.93 -191.8,-222.19 -340.82,-222.19l-746.82 0c-149.02,0 -282.99,87.26 -340.08,220.03l-271.33 599.95c-17.24,38.42 -13.83,83.15 9,118.89 22.85,35.48 62.23,56.88 104.54,56.88l1742.56 0c42.31,0 81.69,-21.4 104.54,-56.88zm1156.74 -689.93c-68.8,0 -124.47,55.66 -124.47,124.46l0 497.88c0,68.81 55.67,124.47 124.47,124.47 68.81,0 124.47,-55.66 124.47,-124.47l0 -497.88c0,-68.8 -55.66,-124.46 -124.47,-124.46zm-1004.04 1120.21c0,-137.34 -111.59,-248.93 -248.94,-248.93 -137.35,0 -248.94,111.59 -248.94,248.93 0,137.35 111.59,248.94 248.94,248.94 137.35,0 248.94,-111.59 248.94,-248.94zm-497.88 497.88l0 248.94c0,137.35 111.59,248.94 248.94,248.94 137.35,0 248.94,-111.59 248.94,-248.94l0 -248.94c0,-137.34 -111.59,-248.94 -248.94,-248.94 -137.35,0 -248.94,111.6 -248.94,248.94z"/>
  <path class="fil2" d="M4167.26 424.9l-1493.63 0c-68.81,0 -124.47,55.66 -124.47,124.46l0 995.75c0,68.81 55.66,124.48 124.47,124.48l1493.63 0c68.8,0 124.46,-55.67 124.46,-124.48l0 -995.75c0,-68.8 -55.66,-124.46 -124.46,-124.46z"/>
  <path class="fil2" d="M4167.26 1918.52l-3999.6 0c-68.81,0 -124.47,55.66 -124.47,124.47 0,68.81 55.66,124.47 124.47,124.47l124.47 0 0 1867.03c0,68.81 55.66,124.47 124.47,124.47 68.81,0 124.47,-55.66 124.47,-124.47l0 -124.47 3252.78 0 0 124.47c0,68.81 55.66,124.47 124.47,124.47 68.81,0 124.47,-55.66 124.47,-124.47l0 -1867.03 124.47 0c68.8,0 124.46,-55.66 124.46,-124.47 0,-68.81 -55.66,-124.47 -124.46,-124.47z"/>
  <path class="fil3" d="M2167.46 2665.34c-68.76,0 -124.47,-55.71 -124.47,-124.48 0,-68.76 55.71,-124.46 124.47,-124.46 68.76,0 124.47,55.7 124.47,124.46 0,68.77 -55.71,124.48 -124.47,124.48z"/>
  <path class="fil3" d="M2291.93 3287.68c0,68.81 -55.67,124.47 -124.47,124.47 -68.81,0 -124.47,-55.66 -124.47,-124.47l0 -248.94c0,-68.81 55.66,-124.47 124.47,-124.47 68.8,0 124.47,55.66 124.47,124.47l0 248.94z"/>
 </g>
</svg>
