<?xml version="1.0" encoding="UTF-8"?>
<!DOCTYPE svg PUBLIC "-//W3C//DTD SVG 1.1//EN" "http://www.w3.org/Graphics/SVG/1.1/DTD/svg11.dtd">
<!-- Creator: CorelDRAW 2021 (64-Bit) -->
<svg xmlns="http://www.w3.org/2000/svg" xml:space="preserve" width="43.3492mm" height="43.3492mm" version="1.1" style="shape-rendering:geometricPrecision; text-rendering:geometricPrecision; image-rendering:optimizeQuality; fill-rule:evenodd; clip-rule:evenodd"
viewBox="0 0 4334.92 4334.92"
 xmlns:xlink="http://www.w3.org/1999/xlink"
 xmlns:xodm="http://www.corel.com/coreldraw/odm/2003">
 <defs>
  <style type="text/css">
   <![CDATA[
    .fil0 {fill:none}
    .fil1 {fill:#39AE41}
   ]]>
  </style>
 </defs>
 <g id="Layer_x0020_1">
  <metadata id="CorelCorpID_0Corel-Layer"/>
  <rect class="fil0" y="0.01" width="4334.9" height="4334.9"/>
  <path class="fil1" d="M2670.65 2414.75c-80.42,32.87 -131.8,158.77 -183.92,223.09 -26.72,32.95 -58.59,38.09 -99.67,21.58 -301.86,-120.26 -533.25,-321.69 -699.83,-599.48 -28.22,-43.08 -23.15,-77.11 10.87,-117.11 50.3,-59.26 113.54,-126.57 127.15,-206.41 30.21,-176.62 -200.68,-724.47 -505.61,-476.23 -877.43,715.01 1463.72,2611.38 1886.25,1585.72 119.52,-290.74 -401.95,-485.78 -535.24,-431.17l0 0.01zm-507.27 1505.13c-310.32,0 -615.66,-82.5 -882.99,-238.7 -42.91,-25.14 -94.78,-31.78 -142.75,-18.75l-580.89 159.43 202.34 -445.77c27.55,-60.67 20.5,-131.3 -18.43,-185.25 -216.45,-300.03 -330.9,-654.26 -330.9,-1024.5 0,-966.99 786.64,-1753.62 1753.62,-1753.62 966.99,0 1753.54,786.63 1753.54,1753.62 0,966.9 -786.63,1753.54 -1753.54,1753.54l0 0zm0 -3878.24c-1171.57,0 -2124.69,953.13 -2124.69,2124.7 0,412.16 117.02,807.97 339.37,1151.49l-322.77 710.86c-29.8,65.65 -18.93,142.5 27.72,197.2 35.85,41.91 87.72,65.15 141.26,65.15 119.68,0 772.27,-205.09 938.35,-250.65 307,164.25 651.35,250.65 1000.76,250.65 1171.49,0 2124.7,-953.21 2124.7,-2124.7 0,-1171.57 -953.21,-2124.69 -2124.7,-2124.69l0 -0.01z"/>
 </g>
</svg>
