<?xml version="1.0" encoding="UTF-8"?>
<!DOCTYPE svg PUBLIC "-//W3C//DTD SVG 1.1//EN" "http://www.w3.org/Graphics/SVG/1.1/DTD/svg11.dtd">
<!-- Creator: CorelDRAW 2021 (64-Bit) -->
<svg xmlns="http://www.w3.org/2000/svg" xml:space="preserve" width="43.3492mm" height="43.3492mm" version="1.1" style="shape-rendering:geometricPrecision; text-rendering:geometricPrecision; image-rendering:optimizeQuality; fill-rule:evenodd; clip-rule:evenodd"
viewBox="0 0 4334.92 4334.92"
 xmlns:xlink="http://www.w3.org/1999/xlink"
 xmlns:xodm="http://www.corel.com/coreldraw/odm/2003">
 <defs>
  <style type="text/css">
   <![CDATA[
    .fil0 {fill:none}
    .fil2 {fill:black}
    .fil1 {fill:#FF9900;fill-rule:nonzero}
   ]]>
  </style>
 </defs>
 <g id="Layer_x0020_1">
  <metadata id="CorelCorpID_0Corel-Layer"/>
  <rect class="fil0" y="0.01" width="4334.9" height="4334.9"/>
  <g id="_2743425436384">
   <g>
    <path class="fil1" d="M3723.17 3541.37c-1754.57,835.02 -2843.47,136.38 -3540.51,-287.96 -43.13,-26.74 -116.44,6.25 -52.83,79.31 232.21,281.57 993.25,960.24 1986.61,960.24 994.05,0 1585.42,-542.4 1659.4,-637.02 73.48,-93.82 21.57,-145.57 -52.69,-114.57l0.02 0zm492.76 -272.14c-47.11,-61.35 -286.5,-72.79 -437.16,-54.28 -150.89,17.97 -377.37,110.19 -357.68,165.56 10.1,20.74 30.73,11.43 134.38,2.11 103.94,-10.37 395.12,-47.11 455.79,32.2 60.95,79.86 -92.87,460.3 -120.96,521.66 -27.15,61.35 10.37,77.18 61.35,36.31 50.29,-40.85 141.32,-146.64 202.41,-296.34 60.67,-150.52 97.67,-360.5 61.86,-407.22l0.01 0z"/>
    <g>
     <path class="fil2" d="M2543.42 1837.5c0,219.1 5.53,401.82 -105.21,596.39 -89.38,158.21 -230.97,255.5 -389.16,255.5 -215.95,0 -341.71,-164.53 -341.71,-407.35 0,-479.35 429.49,-566.35 836.08,-566.35l0 121.81zm567.12 1370.78c-37.18,33.21 -90.96,35.59 -132.88,13.44 -186.67,-155.03 -219.9,-227.01 -322.72,-374.93 -308.48,314.82 -526.79,408.94 -927.02,408.94 -473.01,0 -841.61,-291.88 -841.61,-876.41 0,-456.38 247.59,-767.25 599.55,-919.1 305.33,-134.49 731.67,-158.21 1057.56,-195.38l0 -72.77c0,-133.69 10.27,-291.88 -68.03,-407.35 -68.82,-103.63 -200.12,-146.34 -315.61,-146.34 -214.35,0 -405.77,109.94 -452.44,337.74 -9.5,50.64 -46.67,100.47 -97.28,102.84l-545.79 -58.52c-45.87,-10.31 -96.48,-47.47 -83.83,-117.88 125.76,-661.25 722.93,-860.59 1257.63,-860.59 273.69,0 631.2,72.78 847.15,280.03 273.68,255.47 247.57,596.38 247.57,967.35l0 876.41c0,263.4 109.16,378.87 211.98,521.26 36.38,50.62 44.3,111.54 -1.58,149.49 -114.7,95.7 -318.77,273.68 -431.08,373.35l-1.58 -1.58 0.01 0zm0 0l0 0 0 0z"/>
    </g>
    <path class="fil1" d="M3723.17 3541.37c-1754.57,835.02 -2843.47,136.38 -3540.51,-287.96 -43.13,-26.74 -116.44,6.25 -52.83,79.31 232.21,281.57 993.25,960.24 1986.61,960.24 994.05,0 1585.42,-542.4 1659.4,-637.02 73.48,-93.82 21.57,-145.57 -52.69,-114.57l0.02 0zm492.76 -272.14c-47.11,-61.35 -286.5,-72.79 -437.16,-54.28 -150.89,17.97 -377.37,110.19 -357.68,165.56 10.1,20.74 30.73,11.43 134.38,2.11 103.94,-10.37 395.12,-47.11 455.79,32.2 60.95,79.86 -92.87,460.3 -120.96,521.66 -27.15,61.35 10.37,77.18 61.35,36.31 50.29,-40.85 141.32,-146.64 202.41,-296.34 60.67,-150.52 97.67,-360.5 61.86,-407.22l0.01 0z"/>
    <g>
     <path class="fil2" d="M2543.42 1837.5c0,219.1 5.53,401.82 -105.21,596.39 -89.38,158.21 -230.97,255.5 -389.16,255.5 -215.95,0 -341.71,-164.53 -341.71,-407.35 0,-479.35 429.49,-566.35 836.08,-566.35l0 121.81zm567.12 1370.78c-37.18,33.21 -90.96,35.59 -132.88,13.44 -186.67,-155.03 -219.9,-227.01 -322.72,-374.93 -308.48,314.82 -526.79,408.94 -927.02,408.94 -473.01,0 -841.61,-291.88 -841.61,-876.41 0,-456.38 247.59,-767.25 599.55,-919.1 305.33,-134.49 731.67,-158.21 1057.56,-195.38l0 -72.77c0,-133.69 10.27,-291.88 -68.03,-407.35 -68.82,-103.63 -200.12,-146.34 -315.61,-146.34 -214.35,0 -405.77,109.94 -452.44,337.74 -9.5,50.64 -46.67,100.47 -97.28,102.84l-545.79 -58.52c-45.87,-10.31 -96.48,-47.47 -83.83,-117.88 125.76,-661.25 722.93,-860.59 1257.63,-860.59 273.69,0 631.2,72.78 847.15,280.03 273.68,255.47 247.57,596.38 247.57,967.35l0 876.41c0,263.4 109.16,378.87 211.98,521.26 36.38,50.62 44.3,111.54 -1.58,149.49 -114.7,95.7 -318.77,273.68 -431.08,373.35l-1.58 -1.58 0.01 0zm0 0l0 0 0 0z"/>
    </g>
   </g>
  </g>
 </g>
</svg>
