<?xml version="1.0" encoding="UTF-8"?>
<!DOCTYPE svg PUBLIC "-//W3C//DTD SVG 1.1//EN" "http://www.w3.org/Graphics/SVG/1.1/DTD/svg11.dtd">
<!-- Creator: CorelDRAW 2021 (64-Bit) -->
<svg xmlns="http://www.w3.org/2000/svg" xml:space="preserve" width="43.3492mm" height="43.3492mm" version="1.1" style="shape-rendering:geometricPrecision; text-rendering:geometricPrecision; image-rendering:optimizeQuality; fill-rule:evenodd; clip-rule:evenodd"
viewBox="0 0 4334.92 4334.92"
 xmlns:xlink="http://www.w3.org/1999/xlink"
 xmlns:xodm="http://www.corel.com/coreldraw/odm/2003">
 <defs>
  <style type="text/css">
   <![CDATA[
    .fil0 {fill:none}
    .fil1 {fill:url(#id0);fill-rule:nonzero}
    .fil2 {fill:url(#id1);fill-rule:nonzero}
   ]]>
  </style>
  <linearGradient id="id0" gradientUnits="userSpaceOnUse" x1="2167.46" y1="4288.28" x2="2167.46" y2="46.64">
   <stop offset="0" style="stop-opacity:1; stop-color:#00C489"/>
   <stop offset="1" style="stop-opacity:1; stop-color:#19E3A6"/>
  </linearGradient>
  <linearGradient id="id1" gradientUnits="userSpaceOnUse" x1="2167.46" y1="4048.86" x2="2167.46" y2="286.07">
   <stop offset="0" style="stop-opacity:1; stop-color:#0382F3"/>
   <stop offset="1" style="stop-opacity:1; stop-color:#33A0FF"/>
  </linearGradient>
 </defs>
 <g id="Layer_x0020_1">
  <metadata id="CorelCorpID_0Corel-Layer"/>
  <rect class="fil0" y="0.01" width="4334.9" height="4334.9"/>
  <g id="_2311721220976">
   <g>
    <g>
     <g>
      <path class="fil1" d="M3899.73 959.58l-601.52 -114.74 77.12 -409.65c-342.98,-241.09 -760.5,-388.55 -1207.87,-388.55 -447.37,0 -864.88,147.46 -1207.87,388.55l62.92 412.53 -587.32 111.86c-241.07,342.99 -388.55,760.52 -388.55,1207.88 0,447.36 147.48,864.89 388.55,1207.88l575.22 191.4 -50.82 332.99c342.98,241.09 760.5,388.55 1207.87,388.55 447.37,0 864.89,-147.46 1207.88,-388.55l87.7 -613.98 436.69 89.58c241.07,-342.98 388.55,-760.51 388.55,-1207.87 0,-447.36 -147.48,-864.89 -388.55,-1207.88l0 0zm-653.82 2114.17l-593.81 102.76c-303.36,143.99 -655.76,147.62 -966.78,0l-2.48 0 -399.23 86.1 -122.72 -610.51 0 -2.48c-153.07,-311.41 -145.36,-668.61 0,-964.31l76.94 -622.31 447.49 97.91c303.46,-149.19 660.86,-149.17 964.28,0l2.49 0 448.49 -82.56 75.94 606.95c147.19,310.13 144.41,662.51 0,966.8l69.39 421.65z"/>
     </g>
    </g>
    <g>
     <g>
      <path class="fil2" d="M1377.14 2957.8c-41.74,-38.73 -153.72,-168.29 -216.25,-305.69l-837.53 835.06c-49.76,44.75 -49.76,129.23 0,173.98l350.41 350.42c44.74,49.67 129.22,49.76 173.97,0l835.1 -835.07c-148.89,-74.28 -268.19,-177.38 -305.7,-218.7zm2522.59 417.53l-723.2 -723.23c-22.26,40 -104.04,200.66 -218.75,305.69 -2.59,2.8 -87.83,99.99 -305.69,218.71l835.1 835.07c44.71,49.7 129.18,49.73 173.97,0l350.41 -350.42c49.74,-44.75 49.75,-129.22 0,-173.98l-111.84 -111.84zm-941.95 -1998.21c79.36,73.63 194.89,244.14 216.26,308.18l2.49 0 835.04 -837.56c49.75,-44.74 49.75,-129.22 0,-173.97l-350.42 -350.43c-47.2,-49.7 -126.75,-49.7 -173.96,0l-835.09 837.55c87.16,38.69 229.33,133.42 305.69,216.23l-0.01 0zm-2284.01 -1053.77l-350.41 350.42c-49.75,44.75 -49.76,129.22 0,173.98l837.53 837.56c17.62,-52.82 120.96,-219.33 216.25,-308.19 73.27,-78.98 243.84,-194.81 308.18,-216.22l-837.59 -837.55c-47.2,-49.72 -126.75,-49.72 -173.95,0l-0.01 0z"/>
     </g>
    </g>
   </g>
  </g>
 </g>
</svg>
