<?xml version="1.0" encoding="UTF-8"?>
<!DOCTYPE svg PUBLIC "-//W3C//DTD SVG 1.1//EN" "http://www.w3.org/Graphics/SVG/1.1/DTD/svg11.dtd">
<!-- Creator: CorelDRAW 2021 (64-Bit) -->
<svg xmlns="http://www.w3.org/2000/svg" xml:space="preserve" width="43.3492mm" height="43.3492mm" version="1.1" style="shape-rendering:geometricPrecision; text-rendering:geometricPrecision; image-rendering:optimizeQuality; fill-rule:evenodd; clip-rule:evenodd"
viewBox="0 0 4334.92 4334.92"
 xmlns:xlink="http://www.w3.org/1999/xlink"
 xmlns:xodm="http://www.corel.com/coreldraw/odm/2003">
 <defs>
  <style type="text/css">
   <![CDATA[
    .fil0 {fill:none}
    .fil1 {fill:white;fill-rule:nonzero}
    .fil2 {fill:url(#id0);fill-rule:nonzero}
    .fil3 {fill:url(#id1);fill-rule:nonzero}
   ]]>
  </style>
  <linearGradient id="id0" gradientUnits="userSpaceOnUse" x1="2034.69" y1="3909.94" x2="2034.69" y2="424.97">
   <stop offset="0" style="stop-opacity:1; stop-color:#F77B09"/>
   <stop offset="1" style="stop-opacity:1; stop-color:#FF9C40"/>
  </linearGradient>
  <linearGradient id="id1" gradientUnits="userSpaceOnUse" x1="3420.39" y1="3909.94" x2="3420.39" y2="2167.46">
   <stop offset="0" style="stop-opacity:1; stop-color:#0382F3"/>
   <stop offset="1" style="stop-opacity:1; stop-color:#33A0FF"/>
  </linearGradient>
 </defs>
 <g id="Layer_x0020_1">
  <metadata id="CorelCorpID_0Corel-Layer"/>
  <rect class="fil0" y="0.01" width="4334.9" height="4334.9"/>
  <path class="fil1" d="M3515.64 2559.8c-30.36,-12.58 -62.4,-18.95 -95.24,-18.95 -66.51,0 -129.03,25.9 -176.03,72.91l-186.69 186.69c-97.06,97.06 -97.06,254.98 0,352.05 31.97,31.96 71.11,54.17 113.78,65.11l0 70.02c0,137.26 111.67,248.93 248.93,248.93 137.26,0 248.93,-111.67 248.93,-248.93l0 -497.85c0,-101.04 -60.33,-191.32 -153.68,-229.98z"/>
  <path class="fil2" d="M3700.16 762.83c-212.36,-217.88 -494.42,-337.86 -794.22,-337.86 -332.77,0 -610.78,147.67 -804.03,427.05 -25.41,36.72 -47.7,73.44 -67.22,109.02 -19.51,-35.59 -41.82,-72.3 -67.21,-109.02 -193.25,-279.38 -471.26,-427.05 -804.03,-427.05 -299.8,0 -581.86,119.98 -794.22,337.86 -210.19,215.65 -325.95,499.67 -325.95,799.74 0,702.4 570.68,1183.76 1434.51,1912.38 151.79,128.03 308.75,260.42 475.46,404.66 23.39,20.23 52.4,30.33 81.43,30.33 29.04,0 58.08,-10.12 81.45,-30.35 167.17,-144.68 601.28,-510.75 660.94,-561.33 36.28,-30.76 51.85,-79.51 40.13,-125.6 -12.69,-49.98 -19.13,-101.77 -19.13,-153.96 0,-343.14 279.17,-622.32 622.32,-622.32 57.62,0 114.55,7.81 169.19,23.21 49.75,14.02 102.97,-4.15 133.75,-45.65 206.57,-278.57 302.78,-542.74 302.78,-831.37 0,-300.07 -115.76,-584.09 -325.95,-799.74l0 0z"/>
  <path class="fil3" d="M3657.11 2200c-76.62,-21.59 -156.27,-32.54 -236.72,-32.54 -480.41,0 -871.25,390.84 -871.25,871.24 0,72.85 9.02,145.28 26.82,215.29 98.19,386.22 445.44,655.96 844.43,655.96 480.4,0 871.24,-390.84 871.24,-871.25 0,-388.51 -260.92,-733.39 -634.52,-838.7l0 0zm-112.26 1087.63c0,68.74 -55.72,124.46 -124.46,124.46 -68.74,0 -124.47,-55.72 -124.47,-124.46l0 -203.33c-47.6,27.51 -109.52,20.91 -150.23,-19.82 -48.61,-48.6 -48.61,-127.41 0,-176.01l186.69 -186.7c35.59,-35.59 89.12,-46.25 135.64,-26.97 46.51,19.27 76.83,64.64 76.83,114.99l0 497.84 0 0z"/>
 </g>
</svg>
