<svg xmlns="http://www.w3.org/2000/svg" width="50" height="50" viewBox="0 0 50 50"><path d="m30.842 34.612-8.105 10.387L5.452 31.37a3.862 3.862 0 0 1-.616-5.417l5.748-7.243 20.258 15.903Z" fill="var(--o-icons-purple-pure, #2496F6)"/><path d="m30.842 34.612-8.105 10.387L5.452 31.37a3.862 3.862 0 0 1-.616-5.417l5.748-7.243 20.258 15.903Z" fill="url(#o_icon_project__a)" fill-opacity=".2"/><path d="m22.622 44.909-10.455-8.335 8.127-10.242 10.548 8.28L22.737 45l-.115-.091Z" fill="var(--o-icons-purple-teal, #004454)"/><path d="m22.622 44.909-10.455-8.335 8.127-10.242 10.548 8.28L22.737 45l-.115-.091Z" fill="url(#o_icon_project__b)" fill-opacity=".3"/><path d="m22.593 44.886.144.114 22.447-28.767a3.862 3.862 0 0 0-.636-5.393L37.223 5 20.296 26.332l10.547 8.28-8.105 10.387-.144-.113Z" fill="var(--o-icons-teal-pure, #00ceb3)"/><path d="m22.593 44.886.144.114 22.447-28.767a3.862 3.862 0 0 0-.636-5.393L37.223 5 20.296 26.332l10.547 8.28-8.105 10.387-.144-.113Z" fill="url(#o_icon_project__c)" fill-opacity=".2"/><defs fill="#000000"><linearGradient id="o_icon_project__a" x1="4" y1="18.709" x2="35.5" y2="26.749" gradientUnits="userSpaceOnUse" fill="#000000"><stop stop-color="#ffffff" fill="#000000"/><stop offset="1" stop-color="#ffffff" stop-opacity="0" fill="#000000"/></linearGradient><linearGradient id="o_icon_project__b" x1="12.167" y1="26.332" x2="34.137" y2="31.827" gradientUnits="userSpaceOnUse" fill="#000000"><stop stop-color="#ffffff" fill="#000000"/><stop offset="1" stop-color="#ffffff" stop-opacity="0" fill="#000000"/></linearGradient><linearGradient id="o_icon_project__c" x1="20.295" y1="5" x2="51.618" y2="10.032" gradientUnits="userSpaceOnUse" fill="#000000"><stop stop-color="#ffffff" fill="#000000"/><stop offset="1" stop-color="#ffffff" stop-opacity="0" fill="#000000"/></linearGradient></defs></svg>