<?xml version="1.0" encoding="UTF-8"?>
<!DOCTYPE svg PUBLIC "-//W3C//DTD SVG 1.1//EN" "http://www.w3.org/Graphics/SVG/1.1/DTD/svg11.dtd">
<!-- Creator: CorelDRAW 2021 (64-Bit) -->
<svg xmlns="http://www.w3.org/2000/svg" xml:space="preserve" width="43.3492mm" height="43.3492mm" version="1.1" style="shape-rendering:geometricPrecision; text-rendering:geometricPrecision; image-rendering:optimizeQuality; fill-rule:evenodd; clip-rule:evenodd"
viewBox="0 0 4334.92 4334.92"
 xmlns:xlink="http://www.w3.org/1999/xlink"
 xmlns:xodm="http://www.corel.com/coreldraw/odm/2003">
 <defs>
  <style type="text/css">
   <![CDATA[
    .fil0 {fill:none}
    .fil2 {fill:white;fill-rule:nonzero}
    .fil1 {fill:url(#id0);fill-rule:nonzero}
   ]]>
  </style>
  <linearGradient id="id0" gradientUnits="userSpaceOnUse" x1="2167.46" y1="3538.57" x2="2167.46" y2="796.34">
   <stop offset="0" style="stop-opacity:1; stop-color:#0382F3"/>
   <stop offset="1" style="stop-opacity:1; stop-color:#33A0FF"/>
  </linearGradient>
 </defs>
 <g id="Layer_x0020_1">
  <metadata id="CorelCorpID_0Corel-Layer"/>
  <rect class="fil0" y="0.01" width="4334.9" height="4334.9"/>
  <g id="_2743503857904">
   <path class="fil1" d="M3920.82 796.34l-3506.73 0c-206.2,0 -373.94,167.74 -373.94,373.94l0 1994.35c0,206.2 167.74,373.94 373.94,373.94l3506.73 0c206.2,0 373.94,-167.74 373.94,-373.94l0 -1994.35c0,-206.2 -167.74,-373.94 -373.94,-373.94z"/>
   <path class="fil2" d="M3164.63 2790.69c-68.84,0 -124.65,55.81 -124.65,124.65 0,68.84 55.81,124.65 124.65,124.65 68.84,0 124.65,-55.81 124.65,-124.65 0,-68.84 -55.81,-124.65 -124.65,-124.65z"/>
   <path class="fil2" d="M2666.04 2790.69c-68.84,0 -124.65,55.81 -124.65,124.65 0,68.84 55.81,124.65 124.65,124.65 68.84,0 124.65,-55.81 124.65,-124.65 0,-68.84 -55.81,-124.65 -124.65,-124.65z"/>
   <path class="fil2" d="M1668.87 2790.69c-68.84,0 -124.65,55.81 -124.65,124.65 0,68.84 55.81,124.65 124.65,124.65 68.84,0 124.65,-55.81 124.65,-124.65 0,-68.84 -55.81,-124.65 -124.65,-124.65z"/>
   <path class="fil2" d="M1170.28 2790.69c-68.84,0 -124.65,55.81 -124.65,124.65 0,68.84 55.81,124.65 124.65,124.65 68.84,0 124.65,-55.81 124.65,-124.65 0,-68.84 -55.81,-124.65 -124.65,-124.65z"/>
   <path class="fil2" d="M3663.22 1294.93c-68.9,0 -124.65,55.75 -124.65,124.64l0 1495.77c0,68.89 55.75,124.64 124.65,124.64 68.89,0 124.64,-55.75 124.64,-124.64l0 -1495.77c0,-68.89 -55.75,-124.64 -124.64,-124.64z"/>
   <path class="fil2" d="M3164.63 1294.93c-68.9,0 -124.65,55.75 -124.65,124.64l0 997.18c0,68.9 55.75,124.65 124.65,124.65 68.9,0 124.65,-55.75 124.65,-124.65l0 -997.18c0,-68.89 -55.75,-124.64 -124.65,-124.64z"/>
   <path class="fil2" d="M2666.04 1294.93c-68.9,0 -124.65,55.75 -124.65,124.64l0 997.18c0,68.9 55.75,124.65 124.65,124.65 68.9,0 124.65,-55.75 124.65,-124.65l0 -997.18c0,-68.89 -55.75,-124.64 -124.65,-124.64z"/>
   <path class="fil2" d="M2167.46 1294.93c-68.9,0 -124.65,55.75 -124.65,124.64l0 1495.77c0,68.89 55.75,124.64 124.65,124.64 68.89,0 124.64,-55.75 124.64,-124.64l0 -1495.77c0,-68.89 -55.75,-124.64 -124.64,-124.64z"/>
   <path class="fil2" d="M1668.87 1294.93c-68.9,0 -124.65,55.75 -124.65,124.64l0 997.18c0,68.9 55.75,124.65 124.65,124.65 68.9,0 124.65,-55.75 124.65,-124.65l0 -997.18c0,-68.89 -55.75,-124.64 -124.65,-124.64z"/>
   <path class="fil2" d="M1170.28 1294.93c-68.9,0 -124.65,55.75 -124.65,124.64l0 997.18c0,68.9 55.75,124.65 124.65,124.65 68.9,0 124.65,-55.75 124.65,-124.65l0 -997.18c0,-68.89 -55.75,-124.64 -124.65,-124.64z"/>
   <path class="fil2" d="M671.7 1294.93c-68.9,0 -124.65,55.75 -124.65,124.64l0 1495.77c0,68.89 55.75,124.64 124.65,124.64 68.89,0 124.64,-55.75 124.64,-124.64l0 -1495.77c0,-68.89 -55.75,-124.64 -124.64,-124.64z"/>
  </g>
 </g>
</svg>
