<?xml version="1.0" encoding="UTF-8"?>
<!DOCTYPE svg PUBLIC "-//W3C//DTD SVG 1.1//EN" "http://www.w3.org/Graphics/SVG/1.1/DTD/svg11.dtd">
<!-- Creator: CorelDRAW 2021 (64-Bit) -->
<svg xmlns="http://www.w3.org/2000/svg" xml:space="preserve" width="43.3492mm" height="43.3492mm" version="1.1" style="shape-rendering:geometricPrecision; text-rendering:geometricPrecision; image-rendering:optimizeQuality; fill-rule:evenodd; clip-rule:evenodd"
viewBox="0 0 4334.92 4334.92"
 xmlns:xlink="http://www.w3.org/1999/xlink"
 xmlns:xodm="http://www.corel.com/coreldraw/odm/2003">
 <defs>
  <style type="text/css">
   <![CDATA[
    .fil0 {fill:none}
    .fil2 {fill:#D98A03;fill-rule:nonzero}
    .fil3 {fill:white;fill-rule:nonzero}
    .fil1 {fill:url(#id0);fill-rule:nonzero}
   ]]>
  </style>
  <linearGradient id="id0" gradientUnits="userSpaceOnUse" x1="2038.74" y1="3786.91" x2="2038.74" y2="797.15">
   <stop offset="0" style="stop-opacity:1; stop-color:#FBB130"/>
   <stop offset="1" style="stop-opacity:1; stop-color:#FFC259"/>
  </linearGradient>
 </defs>
 <g id="Layer_x0020_1">
  <metadata id="CorelCorpID_0Corel-Layer"/>
  <rect class="fil0" y="0.01" width="4334.9" height="4334.9"/>
  <g id="_2712390120480">
   <path class="fil1" d="M2914.9 2416.61c0,139.65 109.49,249.14 249.15,249.14 139.65,0 249.14,-109.49 249.14,-249.14 0,-139.66 -109.49,-249.15 -249.14,-249.15 -139.66,0 -249.15,109.49 -249.15,249.15zm1121.16 -498.3l0 -622.86c0,-137.6 -111.54,-249.15 -249.15,-249.15l-3371.77 0c-66.64,0 -127.73,-52.19 -124.71,-118.77 3.24,-71.49 -53.66,-130.37 -124.44,-130.37 -68.86,0 -124.58,55.71 -124.58,124.57l0 2242.31c0,344 278.87,622.87 622.87,622.87l3247.2 0c68.8,0 124.58,-55.77 124.58,-124.57l0 -747.44c0,-68.8 -55.78,-124.58 -124.58,-124.58l-747.43 0.01c-206.08,0 -373.72,-167.65 -373.72,-373.72 0,-206.08 167.64,-373.72 373.72,-373.72l747.43 0c68.8,0 124.58,-55.78 124.58,-124.58l0 0z"/>
   <path class="fil2" d="M4168.94 1793.74l-1004.89 0c-343.83,0 -622.87,279.04 -622.87,622.87 0,343.82 279.04,622.86 622.87,622.86l1004.89 0c69.77,0 124.57,-54.82 124.57,-124.57l0 -996.59c0,-69.77 -54.8,-124.57 -124.57,-124.57zm-1004.89 747.44c-69.77,0 -124.58,-54.82 -124.58,-124.57 0,-69.77 54.81,-124.58 124.58,-124.58 69.77,0 124.57,54.81 124.57,124.58 0,69.75 -54.8,124.57 -124.57,124.57zm872.01 -1868.6c0,-68.79 -55.78,-124.57 -124.58,-124.57l-3496.34 0c-206.08,0 -373.73,167.64 -373.73,373.72 0,206.08 167.65,373.72 373.73,373.72l3620.92 0 0 -622.87z"/>
  </g>
  <g id="_2712390118416">
   <path class="fil3" d="M985.89 1815.25c-181.28,0 -328.8,147.52 -328.8,328.81 0,181.28 147.52,328.81 328.8,328.81 181.29,0 328.81,-147.53 328.81,-328.81 0,-181.29 -147.52,-328.81 -328.81,-328.81z"/>
   <path class="fil3" d="M985.89 2472.86c-233.12,0 -422.75,189.64 -422.75,422.76l0 97.08c0,25.96 21.01,46.97 46.97,46.97l751.56 0c25.97,0 50.11,-21.01 50.11,-46.97l0 -97.08c0,-233.12 -192.77,-422.76 -425.89,-422.76l0 0z"/>
  </g>
 </g>
</svg>
