<?xml version="1.0" encoding="UTF-8"?>
<!DOCTYPE svg PUBLIC "-//W3C//DTD SVG 1.1//EN" "http://www.w3.org/Graphics/SVG/1.1/DTD/svg11.dtd">
<!-- Creator: CorelDRAW 2021 (64-Bit) -->
<svg xmlns="http://www.w3.org/2000/svg" xml:space="preserve" width="43.3492mm" height="43.3492mm" version="1.1" style="shape-rendering:geometricPrecision; text-rendering:geometricPrecision; image-rendering:optimizeQuality; fill-rule:evenodd; clip-rule:evenodd"
viewBox="0 0 4334.92 4334.92"
 xmlns:xlink="http://www.w3.org/1999/xlink"
 xmlns:xodm="http://www.corel.com/coreldraw/odm/2003">
 <defs>
  <style type="text/css">
   <![CDATA[
    .fil0 {fill:none}
    .fil1 {fill:url(#id0);fill-rule:nonzero}
    .fil3 {fill:url(#id1);fill-rule:nonzero}
    .fil2 {fill:url(#id2);fill-rule:nonzero}
   ]]>
  </style>
  <linearGradient id="id0" gradientUnits="userSpaceOnUse" x1="2167.46" y1="4290.46" x2="2167.46" y2="44.45">
   <stop offset="0" style="stop-opacity:1; stop-color:#0382F3"/>
   <stop offset="1" style="stop-opacity:1; stop-color:#33A0FF"/>
  </linearGradient>
  <linearGradient id="id1" gradientUnits="userSpaceOnUse" x1="2167.46" y1="3328.46" x2="2167.46" y2="2187.33">
   <stop offset="0" style="stop-opacity:1; stop-color:#FBB130"/>
   <stop offset="1" style="stop-opacity:1; stop-color:#FFC259"/>
  </linearGradient>
  <linearGradient id="id2" gradientUnits="userSpaceOnUse" xlink:href="#id1" x1="2167.47" y1="2291.85" x2="2167.47" y2="1296.69">
  </linearGradient>
 </defs>
 <g id="Layer_x0020_1">
  <metadata id="CorelCorpID_0Corel-Layer"/>
  <rect class="fil0" y="0.01" width="4334.9" height="4334.9"/>
  <g id="_2311721181088">
   <path class="fil1" d="M4166.07 1711.34l-189.57 0c-44.24,-176.53 -113.71,-344.17 -207.39,-500.48l134.11 -134.12c48.58,-48.58 48.58,-127.34 0,-175.91l-469.13 -469.13c-48.58,-48.58 -127.34,-48.58 -175.91,0l-134.12 134.11c-156.3,-93.67 -323.94,-163.14 -500.48,-207.38l0 -189.58c0,-68.71 -55.69,-124.4 -124.39,-124.4l-663.45 0c-68.7,0 -124.39,55.69 -124.39,124.4l0 189.58c-176.54,44.24 -344.18,113.71 -500.48,207.38l-134.12 -134.11c-48.58,-48.58 -127.34,-48.58 -175.91,0l-469.13 469.13c-48.58,48.58 -48.58,127.34 0,175.91l134.11 134.12c-93.67,156.31 -163.14,323.95 -207.39,500.48l-189.57 0c-68.71,0 -124.4,55.69 -124.4,124.39l0 663.44c0,68.7 55.69,124.39 124.4,124.39l189.58 0.01c44.24,176.54 113.71,344.18 207.38,500.48l-134.11 134.12c-48.58,48.58 -48.58,127.34 0,175.91l469.13 469.12c48.58,48.58 127.34,48.58 175.91,0l134.12 -134.11c156.31,93.68 323.94,163.14 500.48,207.39l0 189.58c0,68.71 55.69,124.4 124.39,124.4l663.45 0c68.7,0 124.39,-55.69 124.39,-124.4l0 -189.58c176.53,-44.24 344.17,-113.71 500.48,-207.39l134.12 134.11c48.58,48.58 127.34,48.58 175.91,0l469.13 -469.12c48.58,-48.58 48.58,-127.34 0,-175.91l-134.11 -134.12c93.67,-156.3 163.14,-323.94 207.38,-500.48l189.58 0c68.71,0 124.4,-55.69 124.4,-124.39l0 -663.44c0,-68.7 -55.69,-124.39 -124.4,-124.39l0 -0.01zm-1998.61 1617.13c-641.21,0 -1161.01,-519.8 -1161.01,-1161.01 0,-641.22 519.8,-1161.02 1161.01,-1161.02 641.22,0 1161.02,519.8 1161.02,1161.02 0,641.21 -519.8,1161.01 -1161.02,1161.01z"/>
   <path class="fil2" d="M2167.47 2291.85c-274.37,0 -497.59,-223.22 -497.59,-497.58 0,-274.37 223.22,-497.58 497.59,-497.58 274.36,0 497.58,223.21 497.58,497.58 0,274.36 -223.22,497.58 -497.58,497.58z"/>
   <path class="fil3" d="M2472.24 2187.33c-84.25,65.48 -190.04,104.52 -304.78,104.52 -114.73,0 -220.52,-39.03 -304.77,-104.52 -283.52,119.39 -483.06,400.07 -483.06,726.49l0 106.44c206.99,191.31 483.75,308.2 787.83,308.2 304.09,0 580.85,-116.9 787.84,-308.2l0 -106.44c0,-326.43 -199.54,-607.11 -483.06,-726.49z"/>
  </g>
 </g>
</svg>
