<?xml version="1.0" encoding="UTF-8"?>
<!DOCTYPE svg PUBLIC "-//W3C//DTD SVG 1.1//EN" "http://www.w3.org/Graphics/SVG/1.1/DTD/svg11.dtd">
<!-- Creator: CorelDRAW 2021 (64-Bit) -->
<svg xmlns="http://www.w3.org/2000/svg" xml:space="preserve" width="43.3492mm" height="43.3492mm" version="1.1" style="shape-rendering:geometricPrecision; text-rendering:geometricPrecision; image-rendering:optimizeQuality; fill-rule:evenodd; clip-rule:evenodd"
viewBox="0 0 4334.92 4334.92"
 xmlns:xlink="http://www.w3.org/1999/xlink"
 xmlns:xodm="http://www.corel.com/coreldraw/odm/2003">
 <defs>
  <style type="text/css">
   <![CDATA[
    .fil0 {fill:none}
    .fil1 {fill:url(#id0);fill-rule:nonzero}
    .fil2 {fill:url(#id1);fill-rule:nonzero}
   ]]>
  </style>
  <linearGradient id="id0" gradientUnits="userSpaceOnUse" x1="2043.05" y1="4041.96" x2="2043.05" y2="44.13">
   <stop offset="0" style="stop-opacity:1; stop-color:#00C489"/>
   <stop offset="1" style="stop-opacity:1; stop-color:#19E3A6"/>
  </linearGradient>
  <linearGradient id="id1" gradientUnits="userSpaceOnUse" x1="3146.37" y1="4290.8" x2="3146.37" y2="2043.05">
   <stop offset="0" style="stop-opacity:1; stop-color:#0382F3"/>
   <stop offset="1" style="stop-opacity:1; stop-color:#33A0FF"/>
  </linearGradient>
 </defs>
 <g id="Layer_x0020_1">
  <metadata id="CorelCorpID_0Corel-Layer"/>
  <rect class="fil0" y="0.01" width="4334.9" height="4334.9"/>
  <g id="_2712394171408">
   <g>
    <g>
     <g>
      <path class="fil1" d="M3584.31 2082.85c-42.29,-44.79 -64.7,-102.01 -64.7,-164.22 0,-97.04 54.74,-181.65 144.33,-223.95 52.25,-24.87 79.63,-82.12 69.66,-136.85 -49.76,-243.85 -144.31,-472.78 -283.66,-679.3 -29.86,-47.27 -92.07,-67.19 -144.31,-47.27 -92.07,32.35 -191.61,9.94 -258.79,-57.24 -69.67,-67.18 -89.58,-166.72 -57.23,-258.77 19.92,-52.26 0,-114.47 -47.27,-144.33 -206.54,-139.34 -435.45,-275 -679.3,-324.76 -54.75,-9.97 -111.97,17.4 -136.85,69.66 -82.12,176.67 -365.79,176.67 -447.9,0 -24.87,-52.26 -82.1,-79.63 -136.85,-69.66 -243.85,49.75 -472.77,185.42 -679.29,324.76 -47.28,29.86 -67.2,92.07 -47.28,144.33 32.35,92.06 12.44,191.6 -57.22,258.77 -67.21,69.68 -166.75,89.59 -258.82,57.24 -52.25,-19.92 -111.97,0 -144.31,47.27 -139.36,206.52 -233.9,435.45 -283.67,679.3 -9.96,54.73 17.42,111.97 69.66,136.85 89.59,42.29 144.33,126.9 144.33,223.95 0,97.05 -54.73,181.64 -144.33,223.94 -52.24,24.89 -79.62,82.11 -69.66,136.86 49.77,243.85 144.31,472.77 283.67,679.3 29.86,47.27 89.58,67.19 144.31,47.27 92.07,-32.35 191.6,-12.44 258.79,57.23 69.66,67.19 89.58,166.71 57.22,258.79 -19.91,52.24 0,114.45 47.28,144.31 206.54,139.34 435.45,233.9 679.29,283.67 7.47,0 14.93,2.49 24.89,2.49 47.28,0 89.58,-27.37 111.97,-72.17 67.19,-144.3 271.23,-186.62 388.17,-79.61l209.02 441.26 1741.8 -0.01 0 -1750.09 -432.95 -209.02zm-898.51 209.03l-410.33 0 0 410.33c-113.57,54.35 -239.15,87.32 -373.24,87.32 -480.24,0 -870.9,-390.66 -870.9,-870.9 0,-480.24 390.66,-870.9 870.9,-870.9 480.24,0 870.9,390.66 870.9,870.9 0,134.09 -32.97,259.67 -87.33,373.25z"/>
     </g>
    </g>
    <g>
     <g>
      <path class="fil2" d="M4141.68 2043.05l-622.07 0 0 622.07c0,68.77 -55.64,124.41 -124.41,124.41l-497.65 0c-68.77,0 -124.42,-55.64 -124.42,-124.41l0 -622.07 -622.07 0c-68.77,0 -124.41,55.64 -124.41,124.41l0 1998.92c0,68.77 55.64,124.41 124.41,124.41l1990.62 0c68.77,0 124.42,-55.65 124.42,-124.42l0 -1998.91c0,-68.77 -55.65,-124.42 -124.42,-124.42l0 0.01zm-1244.13 1741.79l-248.83 0c-68.77,0 -124.42,-55.64 -124.42,-124.41 0,-68.77 55.65,-124.42 124.42,-124.42l248.83 0.01c68.76,0 124.41,55.64 124.41,124.41 0,68.77 -55.65,124.42 -124.41,124.42l0 -0.01z"/>
     </g>
    </g>
   </g>
  </g>
 </g>
</svg>
