<?xml version="1.0" encoding="UTF-8"?>
<!DOCTYPE svg PUBLIC "-//W3C//DTD SVG 1.1//EN" "http://www.w3.org/Graphics/SVG/1.1/DTD/svg11.dtd">
<!-- Creator: CorelDRAW 2021 (64-Bit) -->
<svg xmlns="http://www.w3.org/2000/svg" xml:space="preserve" width="43.3492mm" height="43.3492mm" version="1.1" style="shape-rendering:geometricPrecision; text-rendering:geometricPrecision; image-rendering:optimizeQuality; fill-rule:evenodd; clip-rule:evenodd"
viewBox="0 0 4334.92 4334.92"
 xmlns:xlink="http://www.w3.org/1999/xlink"
 xmlns:xodm="http://www.corel.com/coreldraw/odm/2003">
 <defs>
  <style type="text/css">
   <![CDATA[
    .fil0 {fill:none}
    .fil2 {fill:url(#id0);fill-rule:nonzero}
    .fil1 {fill:url(#id1);fill-rule:nonzero}
    .fil3 {fill:url(#id2);fill-rule:nonzero}
   ]]>
  </style>
  <linearGradient id="id0" gradientUnits="userSpaceOnUse" x1="1913.7" y1="4062.79" x2="1913.7" y2="394.99">
   <stop offset="0" style="stop-opacity:1; stop-color:#0382F3"/>
   <stop offset="1" style="stop-opacity:1; stop-color:#33A0FF"/>
  </linearGradient>
  <linearGradient id="id1" gradientUnits="userSpaceOnUse" x1="2167.46" y1="3136.26" x2="2167.46" y2="2636.28">
   <stop offset="0" style="stop-opacity:1; stop-color:#F77B09"/>
   <stop offset="1" style="stop-opacity:1; stop-color:#FF9C40"/>
  </linearGradient>
  <linearGradient id="id2" gradientUnits="userSpaceOnUse" xlink:href="#id0" x1="3690.85" y1="2480.63" x2="3690.85" y2="751.95">
  </linearGradient>
 </defs>
 <g id="Layer_x0020_1">
  <metadata id="CorelCorpID_0Corel-Layer"/>
  <rect class="fil0" y="0.01" width="4334.9" height="4334.9"/>
  <path class="fil1" d="M290.14 3136.25c-137.85,0 -249.99,-112.14 -249.99,-249.99 0,-137.84 112.14,-249.98 249.99,-249.98l3754.65 0c137.84,0 249.98,112.14 249.98,249.98 0,137.85 -112.14,249.99 -249.98,249.99l-3754.65 0z"/>
  <g id="_1893410185744">
   <path class="fil2" d="M3697.72 1847.79c4.84,-45.61 -28.26,-86.51 -73.88,-91.36 -115.34,-12.2 -170.78,-25.01 -290.63,-37.7 -150.22,-15.88 -167.14,92.5 -198.26,111.85 -54.24,-45.98 -89.81,-208.84 -124.91,-257.52 -46.14,-64.11 -147.72,-33.33 -150.49,45.66 -5.02,145.67 -102.74,350.22 -165.88,368.92 -53.89,-76.65 -35.49,-368.1 -23.98,-461.85 5.32,-43.41 -23.86,-83.48 -66.79,-91.75 -42.93,-8.31 -84.92,18.13 -96.04,60.38 -59.2,224.45 -275.43,384.41 -392.38,357.19 -45.39,-10.61 -77.94,-56.22 -73.83,-72.71 19.3,-76.87 -70.32,-134.65 -132.35,-85.22 -160.27,127.59 -393.59,306.5 -635.74,509.06 28.99,-199.79 40.34,-291.11 79.5,-465.66 450.46,-277.68 610.6,-663.01 653.84,-794.27 132.48,-402.16 -51.17,-578.39 -205.72,-543.52 -287.28,64.71 -525.2,943.47 -593.84,1230.63 -81.11,45.32 -171.91,86.78 -273.45,122.28 -43.32,15.1 -66.17,62.49 -51.03,105.81 15.11,43.36 62.55,66.18 105.83,51.08 61.23,-21.39 118.94,-44.8 173.34,-69.86 -25.63,134.25 -45.54,297.99 -80.9,528.33 -487.89,428.64 -1262.18,1187.86 -818.73,1668.48 22.33,24.2 57.14,33.12 88.59,22.04 606.75,-213.12 783.82,-966.71 885.04,-1605.13 232.28,-201.43 452.76,-373.94 678.72,-551.74 137.98,199.12 399.66,129.4 580.09,-57.48 7.7,115.99 32.93,264.61 144.51,301.96 149.54,50 267.9,-115.25 328.02,-263.27 97.6,161.78 247.34,145.86 331.44,10.05 1.77,-2.86 3.95,-6.33 5.76,-9.1 26.61,-0.87 204.62,27.97 302.79,38.3 45.66,4.95 86.55,-28.21 91.36,-73.88zm-1860.19 -1286.46c37.19,0 81.67,113.53 10.53,329.45 -33.12,100.59 -143.96,369.28 -434.8,600.73 41.47,-151.73 280.55,-930.18 424.27,-930.18zm-1488.45 3318.56c-235.26,-349.87 375.42,-960.61 686.91,-1248.89 -87.29,470.59 -246.97,1055.39 -686.91,1248.89z"/>
   <path class="fil3" d="M3969.22 816.21c-338.02,-206.7 -617.48,120.75 -785.32,477.68 -19.52,41.51 -1.68,91.02 39.86,110.55 41.55,19.55 91.01,1.68 110.54,-39.82 116.33,-247.35 314.81,-549.4 548.23,-406.62 248.17,151.74 252.66,1227.43 -351.09,1358.31 -44.84,9.74 -73.32,53.97 -63.58,98.81 9.74,44.96 54.02,73.32 98.81,63.62 756.67,-164.04 773.5,-1435.69 402.55,-1662.53z"/>
  </g>
 </g>
</svg>
