<?xml version="1.0" encoding="UTF-8"?>
<!DOCTYPE svg PUBLIC "-//W3C//DTD SVG 1.1//EN" "http://www.w3.org/Graphics/SVG/1.1/DTD/svg11.dtd">
<!-- Creator: CorelDRAW 2021 (64-Bit) -->
<svg xmlns="http://www.w3.org/2000/svg" xml:space="preserve" width="43.3492mm" height="43.3492mm" version="1.1" style="shape-rendering:geometricPrecision; text-rendering:geometricPrecision; image-rendering:optimizeQuality; fill-rule:evenodd; clip-rule:evenodd"
viewBox="0 0 4334.92 4334.92"
 xmlns:xlink="http://www.w3.org/1999/xlink"
 xmlns:xodm="http://www.corel.com/coreldraw/odm/2003">
 <defs>
  <style type="text/css">
   <![CDATA[
    .fil0 {fill:none}
    .fil1 {fill:white;fill-rule:nonzero}
    .fil3 {fill:url(#id0);fill-rule:nonzero}
    .fil2 {fill:url(#id1);fill-rule:nonzero}
   ]]>
  </style>
  <linearGradient id="id0" gradientUnits="userSpaceOnUse" x1="2165" y1="3796.19" x2="2165" y2="41.18">
   <stop offset="0" style="stop-opacity:1; stop-color:#0382F3"/>
   <stop offset="1" style="stop-opacity:1; stop-color:#33A0FF"/>
  </linearGradient>
  <linearGradient id="id1" gradientUnits="userSpaceOnUse" x1="2165" y1="4294.64" x2="2165" y2="1494.92">
   <stop offset="0" style="stop-opacity:1; stop-color:#00C489"/>
   <stop offset="1" style="stop-opacity:1; stop-color:#19E3A6"/>
  </linearGradient>
 </defs>
 <g id="Layer_x0020_1">
  <metadata id="CorelCorpID_0Corel-Layer"/>
  <rect class="fil0" y="0.01" width="4334.9" height="4334.9"/>
  <path class="fil1" d="M2912.67 1553.15l-124.61 0 0 623.07c0,69.76 -54.81,124.61 -124.61,124.61 -69.79,0 -124.61,-54.83 -124.61,-124.61l0 -159.5 -643.01 -214.35 -104.67 0 0 373.85c0,69.76 -54.82,124.61 -124.61,124.61 -69.8,0 -124.61,-54.83 -124.61,-124.61l0 -373.85 -124.61 0c-69.8,0 -124.62,-54.83 -124.62,-124.61l0 -498.44c0,-69.8 54.82,-124.63 124.62,-124.63l478.5 0.02 643.01 -214.35 0 -159.5c0,-69.8 54.82,-124.61 124.61,-124.61 69.8,0 124.61,54.81 124.61,124.61l0 623.07 124.61 0c69.8,0 124.62,54.82 124.62,124.61 0,69.78 -54.82,124.61 -124.62,124.61z"/>
  <path class="fil1" d="M2414.23 2799.28l-498.46 0c-69.79,0 -124.61,-54.84 -124.61,-124.61 0,-69.8 54.82,-124.62 124.61,-124.62l498.46 0c69.79,0 124.61,54.82 124.61,124.62 0,69.77 -54.82,124.61 -124.61,124.61z"/>
  <path class="fil2" d="M4241.83 2076.55l-706.09 -523.75 0 815.31 44.86 -37.37c52.33,-44.87 132.11,-37.39 174.46,14.95l0 0.01c44.85,52.33 37.39,132.08 -14.96,174.45l-1495.35 1246.14c-22.44,19.93 -52.35,29.91 -79.76,29.91 -27.41,0 -57.31,-10 -79.74,-29.91l-1495.36 -1246.14c-52.35,-42.37 -59.82,-122.12 -14.95,-174.45 42.35,-52.35 122.11,-59.81 174.45,-14.96l44.87 37.37 0 -815.31 -706.09 523.75c-31.4,23.49 -49.9,60.49 -49.9,99.67l0 1744.59c0,206.13 167.7,373.83 373.83,373.83l3505.8 0c206.13,0 373.83,-167.7 373.83,-373.85l0 -1744.57c0,-39.18 -18.5,-76.18 -49.9,-99.67z"/>
  <path class="fil3" d="M3755.06 2345.69c-42.36,-52.34 -122.12,-59.81 -174.46,-14.95l-44.86 37.37 0 -1953.09c0,-206.86 -166.98,-373.84 -373.84,-373.84l-1993.8 0c-206.87,0 -373.84,166.98 -373.84,373.84l0 1953.1 -44.87 -37.38c-52.34,-44.85 -132.09,-37.38 -174.46,14.95 -44.86,52.34 -37.39,132.09 14.96,174.46l1495.35 1246.13c22.44,19.93 52.35,29.91 79.76,29.91 27.4,0 57.31,-9.98 79.75,-29.91l1495.35 -1246.13c52.35,-42.37 59.82,-122.12 14.96,-174.46l0 0zm-1340.83 453.59l-498.46 0c-69.79,0 -124.61,-54.84 -124.61,-124.61 0,-69.8 54.82,-124.62 124.61,-124.62l498.46 0.01c69.79,0 124.61,54.82 124.61,124.61 0,69.77 -54.82,124.61 -124.61,124.61l0 0zm498.45 -1246.13l-124.61 0 0 623.07c0,69.77 -54.83,124.61 -124.62,124.61 -69.79,0 -124.61,-54.83 -124.61,-124.61l0 -159.51 -643.01 -214.33 -104.67 0 0 373.84c0,69.77 -54.82,124.61 -124.61,124.61 -69.8,0 -124.62,-54.83 -124.62,-124.61l0 -373.84 -124.61 0c-69.79,0 -124.61,-54.84 -124.61,-124.62l0 -498.45c0,-69.79 54.82,-124.61 124.61,-124.61l478.51 0 643.01 -214.34 0 -159.5c0,-69.79 54.82,-124.62 124.61,-124.62 69.79,0 124.62,54.83 124.62,124.62l0 623.07 124.61 0c69.79,0 124.61,54.82 124.61,124.61 0,69.77 -54.82,124.61 -124.61,124.61l0 0z"/>
 </g>
</svg>
