<?xml version="1.0" standalone="no"?>
<!DOCTYPE svg PUBLIC "-//W3C//DTD SVG 20010904//EN"
 "http://www.w3.org/TR/2001/REC-SVG-20010904/DTD/svg10.dtd">
<svg version="1.0" xmlns="http://www.w3.org/2000/svg"
 width="128.000000pt" height="128.000000pt" viewBox="0 0 128.000000 128.000000"
 preserveAspectRatio="xMidYMid meet">

<g transform="translate(0.000000,128.000000) scale(0.100000,-0.100000)"
fill="#000000" stroke="none">
<path d="M93 1013 l-33 -4 0 -385 c0 -377 0 -384 20 -384 20 0 20 7 20 365 l0
365 520 0 520 0 0 -365 c0 -358 0 -365 20 -365 20 0 20 7 20 384 0 341 -2 385
-16 390 -17 6 -1018 5 -1071 -1z"/>
<path d="M600 815 c0 -20 5 -25 25 -25 20 0 25 5 25 25 0 20 -5 25 -25 25 -20
0 -25 -5 -25 -25z"/>
<path d="M710 815 c0 -9 5 -15 11 -13 6 2 11 8 11 13 0 5 -5 11 -11 13 -6 2
-11 -4 -11 -13z"/>
<path d="M770 815 c0 -13 21 -15 125 -15 104 0 125 2 125 15 0 13 -21 15 -125
15 -104 0 -125 -2 -125 -15z"/>
<path d="M600 705 c0 -20 5 -25 25 -25 20 0 25 5 25 25 0 20 -5 25 -25 25 -20
0 -25 -5 -25 -25z"/>
<path d="M710 705 c0 -9 5 -15 11 -13 6 2 11 8 11 13 0 5 -5 11 -11 13 -6 2
-11 -4 -11 -13z"/>
<path d="M770 705 c0 -13 21 -15 125 -15 104 0 125 2 125 15 0 13 -21 15 -125
15 -104 0 -125 -2 -125 -15z"/>
<path d="M327 627 c-33 -46 -35 -52 -20 -59 57 -22 141 4 171 55 21 34 11 43
-58 50 l-55 6 -38 -52z"/>
<path d="M600 595 c0 -20 5 -25 25 -25 20 0 25 5 25 25 0 20 -5 25 -25 25 -20
0 -25 -5 -25 -25z"/>
<path d="M715 599 c-10 -15 3 -25 16 -12 7 7 7 13 1 17 -6 3 -14 1 -17 -5z"/>
<path d="M770 590 c0 -6 48 -10 125 -10 77 0 125 4 125 10 0 6 -48 10 -125 10
-77 0 -125 -4 -125 -10z"/>
<path d="M5 208 c10 -48 44 -94 90 -120 l40 -23 505 0 505 0 47 27 c65 39 117
148 70 148 -12 0 -22 -14 -32 -42 -10 -27 -27 -50 -49 -65 l-34 -23 -506 0
c-484 0 -507 1 -538 20 -32 19 -63 66 -63 95 0 9 -9 15 -21 15 -18 0 -20 -4
-14 -32z"/>
<path d="M177 183 c-14 -13 -6 -33 13 -33 13 0 20 7 20 20 0 19 -20 27 -33 13z"/>
<path d="M270 171 c0 -15 6 -21 21 -21 25 0 22 33 -4 38 -12 2 -17 -3 -17 -17z"/>
<path d="M360 171 c0 -15 6 -21 21 -21 14 0 19 5 17 17 -5 26 -38 29 -38 4z"/>
<path d="M887 183 c-14 -13 -6 -33 13 -33 13 0 20 7 20 20 0 19 -20 27 -33 13z"/>
<path d="M977 183 c-14 -13 -6 -33 13 -33 13 0 20 7 20 20 0 19 -20 27 -33 13z"/>
<path d="M1065 180 c-8 -13 3 -30 20 -30 14 0 27 24 18 34 -10 9 -31 7 -38 -4z"/>
</g>
</svg>
