<?xml version="1.0" standalone="no"?>
<!DOCTYPE svg PUBLIC "-//W3C//DTD SVG 20010904//EN"
 "http://www.w3.org/TR/2001/REC-SVG-20010904/DTD/svg10.dtd">
<svg version="1.0" xmlns="http://www.w3.org/2000/svg"
 width="128.000000pt" height="128.000000pt" viewBox="0 0 128.000000 128.000000"
 preserveAspectRatio="xMidYMid meet">

<g transform="translate(0.000000,128.000000) scale(0.100000,-0.100000)"
fill="#000000" stroke="none">
<path d="M50 1193 c-51 -19 -49 -1 -49 -491 0 -405 2 -459 16 -474 15 -17 44
-18 357 -18 l341 0 39 -41 c53 -57 106 -79 191 -79 85 0 138 22 191 79 32 33
46 41 75 41 71 0 68 -18 68 492 0 447 0 456 -21 474 -19 18 -50 19 -607 21
-322 1 -593 -1 -601 -4z m1188 -176 l3 -137 -598 2 -598 3 -3 124 c-1 69 0
131 2 138 4 11 116 13 598 11 l593 -3 3 -138z m-3 -317 l0 -135 -58 -3 c-47
-2 -69 2 -113 24 -75 37 -162 37 -238 0 l-54 -26 -363 2 -364 3 -3 124 c-1 69
0 131 2 138 4 11 116 13 598 11 l593 -3 0 -135z m-186 -146 c169 -85 169 -323
0 -408 -175 -87 -374 67 -329 254 36 148 193 222 329 154z m-337 -81 c-22 -39
-27 -61 -27 -118 0 -38 4 -80 8 -93 l8 -22 -328 2 -328 3 -3 138 -3 137 350 0
350 0 -27 -47z m526 -90 c-3 -137 -3 -138 -27 -141 -20 -3 -22 -1 -16 15 4 10
10 47 12 83 4 57 1 72 -25 123 l-29 57 44 0 44 0 -3 -137z"/>
<path d="M148 1019 c-3 -51 3 -66 22 -54 16 10 13 105 -4 105 -10 0 -15 -16
-18 -51z"/>
<path d="M232 1018 c4 -67 22 -65 26 2 2 40 0 50 -13 50 -13 0 -15 -10 -13
-52z"/>
<path d="M312 1018 c4 -74 28 -77 28 -4 0 44 -3 56 -16 56 -12 0 -14 -10 -12
-52z"/>
<path d="M398 1019 c-3 -51 3 -66 22 -54 16 10 13 105 -4 105 -10 0 -15 -16
-18 -51z"/>
<path d="M1071 1040 c-19 -11 -9 -45 14 -45 13 0 21 8 23 21 3 23 -17 37 -37
24z"/>
<path d="M836 1031 c-9 -14 4 -41 19 -41 8 0 16 4 19 9 3 5 -2 8 -12 7 -10 0
-16 6 -16 17 2 19 -2 22 -10 8z"/>
<path d="M865 1030 c3 -5 8 -10 11 -10 2 0 4 5 4 10 0 6 -5 10 -11 10 -5 0 -7
-4 -4 -10z"/>
<path d="M145 700 c0 -41 3 -50 18 -50 14 0 17 9 17 50 0 41 -3 50 -17 50 -15
0 -18 -9 -18 -50z"/>
<path d="M230 700 c0 -38 4 -50 15 -50 11 0 15 12 15 50 0 38 -4 50 -15 50
-11 0 -15 -12 -15 -50z"/>
<path d="M310 700 c0 -38 4 -50 15 -50 11 0 15 12 15 50 0 38 -4 50 -15 50
-11 0 -15 -12 -15 -50z"/>
<path d="M395 700 c0 -41 3 -50 18 -50 14 0 17 9 17 50 0 41 -3 50 -17 50 -15
0 -18 -9 -18 -50z"/>
<path d="M840 714 c-11 -12 -10 -18 3 -32 12 -12 20 -13 28 -5 8 8 6 11 -7 10
-11 -1 -19 4 -19 13 0 8 8 14 17 14 10 -1 15 2 12 7 -8 13 -20 11 -34 -7z"/>
<path d="M1064 716 c-9 -24 4 -48 23 -44 12 2 18 12 18 28 0 29 -32 41 -41 16z"/>
<path d="M923 533 c15 -2 37 -2 50 0 12 2 0 4 -28 4 -27 0 -38 -2 -22 -4z"/>
<path d="M808 483 c-29 -32 -48 -66 -48 -85 1 -7 8 3 16 22 8 19 27 47 41 63
15 15 24 27 22 27 -3 0 -17 -12 -31 -27z"/>
<path d="M1072 485 c15 -17 34 -46 42 -65 8 -19 15 -29 16 -22 0 22 -27 66
-57 92 l-28 25 27 -30z"/>
<path d="M948 493 c7 -3 16 -2 19 1 4 3 -2 6 -13 5 -11 0 -14 -3 -6 -6z"/>
<path d="M983 410 c0 -41 2 -58 4 -37 2 20 2 54 0 75 -2 20 -4 3 -4 -38z"/>
<path d="M752 350 c0 -14 2 -19 5 -12 2 6 2 18 0 25 -3 6 -5 1 -5 -13z"/>
<path d="M1132 350 c0 -14 2 -19 5 -12 2 6 2 18 0 25 -3 6 -5 1 -5 -13z"/>
<path d="M898 313 c-16 -19 -30 -86 -16 -77 4 3 8 18 8 34 0 17 7 33 17 39 10
5 15 12 12 15 -3 4 -13 -2 -21 -11z"/>
<path d="M990 320 c0 -5 5 -10 11 -10 5 0 7 5 4 10 -3 6 -8 10 -11 10 -2 0 -4
-4 -4 -10z"/>
<path d="M760 302 c0 -22 27 -66 57 -92 l28 -25 -27 30 c-15 17 -34 46 -42 65
-8 19 -15 29 -16 22z"/>
<path d="M1117 288 c-4 -15 -22 -45 -39 -65 -29 -34 -30 -36 -4 -13 32 29 59
76 53 93 -2 7 -7 0 -10 -15z"/>
<path d="M1028 273 c5 -21 7 -23 10 -9 2 10 0 22 -6 28 -6 6 -7 0 -4 -19z"/>
<path d="M1008 218 c-10 -10 -14 -18 -9 -18 10 0 36 29 30 34 -2 1 -12 -6 -21
-16z"/>
<path d="M888 203 c7 -3 16 -2 19 1 4 3 -2 6 -13 5 -11 0 -14 -3 -6 -6z"/>
<path d="M1010 179 c-14 -6 -51 -9 -83 -7 -39 3 -53 1 -41 -5 22 -12 131 -4
146 11 14 14 11 14 -22 1z"/>
<path d="M149 436 c-2 -2 -2 -27 -1 -55 3 -36 8 -51 18 -51 12 0 14 12 12 52
-3 45 -15 68 -29 54z"/>
<path d="M230 386 c0 -44 3 -56 16 -56 12 0 14 10 12 52 -4 74 -28 77 -28 4z"/>
<path d="M317 433 c-4 -3 -7 -28 -7 -55 0 -36 4 -48 15 -48 12 0 15 13 15 55
0 51 -7 65 -23 48z"/>
<path d="M399 436 c-2 -2 -2 -27 -1 -55 3 -36 8 -51 18 -51 12 0 14 12 12 52
-3 45 -15 68 -29 54z"/>
</g>
</svg>
