<?xml version="1.0" standalone="no"?>
<!DOCTYPE svg PUBLIC "-//W3C//DTD SVG 20010904//EN"
 "http://www.w3.org/TR/2001/REC-SVG-20010904/DTD/svg10.dtd">
<svg version="1.0" xmlns="http://www.w3.org/2000/svg"
 width="128.000000pt" height="128.000000pt" viewBox="0 0 128.000000 128.000000"
 preserveAspectRatio="xMidYMid meet">

<g transform="translate(0.000000,128.000000) scale(0.100000,-0.100000)"
fill="#000000" stroke="none">
<path d="M44 1258 c-43 -20 -44 -38 -44 -538 l0 -479 24 -28 24 -28 200 -5
199 -5 -28 -62 c-26 -57 -31 -63 -59 -63 -23 0 -30 -4 -30 -20 0 -20 7 -20
310 -20 303 0 310 0 310 20 0 16 -7 20 -30 20 -28 0 -33 6 -59 63 l-28 62 198
5 c192 5 198 6 223 29 l26 24 0 494 0 494 -25 24 -24 25 -583 -1 c-380 0 -590
-4 -604 -11z m1184 -40 c9 -9 12 -113 12 -405 l0 -393 -600 0 -600 0 0 393 c0
292 3 396 12 405 17 17 1159 17 1176 0z m12 -908 c0 -58 -3 -71 -19 -80 -13
-6 -214 -10 -585 -10 -500 0 -566 2 -580 16 -11 11 -16 35 -16 80 l0 64 600 0
600 0 0 -70z m-420 -197 l29 -63 -205 0 c-233 0 -215 -9 -172 86 l19 45 150
-3 149 -3 30 -62z"/>
<path d="M372 493 c147 -2 390 -2 540 0 150 1 30 2 -267 2 -297 0 -420 -1
-273 -2z"/>
<path d="M490 299 c0 -14 5 -19 17 -17 26 5 29 38 4 38 -15 0 -21 -6 -21 -21z"/>
<path d="M622 303 c5 -26 38 -29 38 -4 0 15 -6 21 -21 21 -14 0 -19 -5 -17
-17z"/>
<path d="M760 299 c0 -25 33 -22 38 4 2 12 -3 17 -17 17 -15 0 -21 -6 -21 -21z"/>
</g>
</svg>
