<?xml version="1.0" standalone="no"?>
<!DOCTYPE svg PUBLIC "-//W3C//DTD SVG 20010904//EN"
 "http://www.w3.org/TR/2001/REC-SVG-20010904/DTD/svg10.dtd">
<svg version="1.0" xmlns="http://www.w3.org/2000/svg"
 width="128.000000pt" height="128.000000pt" viewBox="0 0 128.000000 128.000000"
 preserveAspectRatio="xMidYMid meet">

<g transform="translate(0.000000,128.000000) scale(0.100000,-0.100000)"
fill="#000000" stroke="none">
<path d="M475 1251 c-200 -58 -359 -208 -421 -396 -25 -79 -29 -104 -29 -205
1 -99 5 -126 28 -193 22 -63 27 -95 27 -172 l0 -95 -36 0 -37 0 5 -44 c7 -57
40 -104 92 -127 38 -17 75 -19 536 -19 461 0 498 2 536 19 52 23 85 70 92 127
l5 44 -42 0 -41 0 0 83 c0 64 6 101 26 157 38 110 50 212 36 304 -11 74 -55
214 -70 225 -4 4 -20 25 -36 49 -74 109 -223 213 -352 246 -83 21 -241 20
-319 -3z m680 -696 l0 -360 -517 -3 -518 -2 0 358 c0 197 3 362 7 365 3 4 236
6 517 5 l511 -3 0 -360z m75 -416 c0 -21 -33 -66 -60 -83 -25 -14 -83 -16
-530 -16 -447 0 -505 2 -530 16 -27 17 -60 62 -60 83 0 8 169 11 590 11 421 0
590 -3 590 -11z"/>
<path d="M430 95 c0 -8 9 -15 20 -15 11 0 20 7 20 15 0 8 -9 15 -20 15 -11 0
-20 -7 -20 -15z"/>
<path d="M560 95 c0 -12 16 -15 80 -15 64 0 80 3 80 15 0 12 -16 15 -80 15
-64 0 -80 -3 -80 -15z"/>
<path d="M810 95 c0 -8 9 -15 20 -15 11 0 20 7 20 15 0 8 -9 15 -20 15 -11 0
-20 -7 -20 -15z"/>
</g>
</svg>
