<svg xmlns="http://www.w3.org/2000/svg" width="50" height="50" viewBox="0 0 50 50"><path d="M4 25a4 4 0 0 1 4-4h7v25H4V25Z" fill="var(--o-icons-purple-pure, #2496F6)"/><path d="M4 25a4 4 0 0 1 4-4h7v25H4V25Z" fill="url(#o_icon_sale_management__a)" fill-opacity=".2"/><path d="M26 8c0-2.21 1.876-4 4.19-4H46v38c0 2.21-1.876 4-4.19 4H26V8Z" fill="var(--o-icons-yellow-pure, #fbb130)"/><path d="M26 8c0-2.21 1.876-4 4.19-4H46v38c0 2.21-1.876 4-4.19 4H26V8Z" fill="url(#o_icon_sale_management__b)" fill-opacity=".2"/><path d="M15 17.067C15 14.821 16.876 13 19.19 13H35v28.933C35 44.179 33.124 46 30.81 46H15V17.067Z" fill="var(--o-icons-red-pure, #fc787d)"/><path d="M15 17.067C15 14.821 16.876 13 19.19 13H35v28.933C35 44.179 33.124 46 30.81 46H15V17.067Z" fill="url(#o_icon_sale_management__c)" fill-opacity=".2"/><path d="M26 46h4.81c2.314 0 4.19-1.821 4.19-4.067V13h-9v33Z" fill="var(--o-icons-red-yellow, #f85318)"/><path d="M26 46h4.81c2.314 0 4.19-1.821 4.19-4.067V13h-9v33Z" fill="url(#o_icon_sale_management__d)" fill-opacity=".2"/><path d="m15 46 4.995-.002A4.005 4.005 0 0 0 24 41.995V21h-9v25Z" fill="var(--o-icons-purple-red, #473e82)"/><path d="m15 46 4.995-.002A4.005 4.005 0 0 0 24 41.995V21h-9v25Z" fill="url(#o_icon_sale_management__e)" fill-opacity=".2"/><defs fill="#000000"><linearGradient id="o_icon_sale_management__a" x1="4" y1="21" x2="17.586" y2="22.494" gradientUnits="userSpaceOnUse" fill="#000000"><stop stop-color="#fff" fill="#000000"/><stop offset="1" stop-color="#fff" stop-opacity="0" fill="#000000"/></linearGradient><linearGradient id="o_icon_sale_management__b" x1="26" y1="4" x2="50.651" y2="6.935" gradientUnits="userSpaceOnUse" fill="#000000"><stop stop-color="#fff" fill="#000000"/><stop offset="1" stop-color="#fff" stop-opacity="0" fill="#000000"/></linearGradient><linearGradient id="o_icon_sale_management__c" x1="15" y1="13" x2="39.439" y2="16.703" gradientUnits="userSpaceOnUse" fill="#000000"><stop stop-color="#fff" fill="#000000"/><stop offset="1" stop-color="#fff" stop-opacity="0" fill="#000000"/></linearGradient><linearGradient id="o_icon_sale_management__d" x1="26" y1="13" x2="37.198" y2="13.764" gradientUnits="userSpaceOnUse" fill="#000000"><stop stop-color="#fff" fill="#000000"/><stop offset="1" stop-color="#fff" stop-opacity="0" fill="#000000"/></linearGradient><linearGradient id="o_icon_sale_management__e" x1="15" y1="21" x2="26.16" y2="22.004" gradientUnits="userSpaceOnUse" fill="#000000"><stop stop-color="#fff" fill="#000000"/><stop offset="1" stop-color="#fff" stop-opacity="0" fill="#000000"/></linearGradient></defs></svg>